 http://www.hotimg.com/direct/uYNuufq.jpg

Screens:
 
http://www.hotimg.com/direct/d53tKB8.jpg
 
http://www.hotimg.com/direct/aXzxAZ7.jpg
 
http://www.hotimg.com/direct/5764UTY.jpg
 
http://www.hotimg.com/direct/uqsxQvk.jpg

Alternative:
 
http://www.postimg.com/image/50000/photo-49587.jpg
 
http://www.postimg.com/image/50000/photo-49588.jpg
 
http://www.postimg.com/image/50000/photo-49589.jpg
 
http://www.postimg.com/image/50000/photo-49590.jpg

ScreenCaps:
 
http://www.postimg.com/image/50000/photo-49591.jpg

Harry Potter and the Deathly Hallows Part 2 (2011) DVDRip XviD-MAX
Format                           : AVI
Format/Info                      : Audio Video Interleave
Format profile                   : OpenDML
File size                        : 1.46 GiB
Duration                         : 2h 5mn
Overall bit rate                 : 1 675 Kbps
Writing application              : VirtualDubMod 1.5.10.2 (build 2542/release)
Writing library                  : VirtualDubMod build 2542/release
Original source form             : MAX TORRENTZ
Copyright                        : SIGISMUNT

Video
ID                               : 0
Format                           : MPEG-4 Visual
Format profile                   : AdvancedSimple@L5
Format settings, BVOP            : No
Format settings, QPel            : No
Format settings, GMC             : No warppoints
Format settings, Matrix          : Custom
Codec ID                         : XVID
Codec ID/Hint                    : XviD
Duration                         : 2h 5mn
Bit rate                         : 1 478 Kbps
Width                            : 672 pixels
Height                           : 288 pixels
Display aspect ratio             : 2.35:1
Frame rate                       : 29.970 fps
Resolution                       : 24 bits
Colorimetry                      : 4:2:0
Scan type                        : Progressive
Bits/(Pixel*Frame)               : 0.255
Stream size                      : 1.29 GiB (88%)
Writing library                  : XviD 1.2.1 (UTC 2008-12-04)

Audio
ID                               : 1
Format                           : MPEG Audio
Format version                   : Version 1
Format profile                   : Layer 3
Codec ID                         : 55
Codec ID/Hint                    : MP3
Duration                         : 2h 5mn
Bit rate mode                    : Constant
Bit rate                         : 192 Kbps
Channel(s)                       : 2 channels
Sampling rate                    : 48.0 KHz
Resolution                       : 16 bits
Stream size                      : 172 MiB (11%)
Alignment                        : Aligned on interleaves
Interleave, duration             : 511 ms (15.30 video frames)
Interleave, preload duration     : 216 ms

Source: DVDRip (perfect a/v/sync quality,sample included)
This torrent is not seedbox supported,please seed it to the MAX
 
http://www.imdb.com/title/tt1201607/

Uploader Note: Video is pretty dark in some places as all latest hp parts,please
add more brightness or contrast from your monitor if you need it

Note:If you have something to offer as early releases,seedboxes,links,accounts,etc
please contact us on piratepedia[@]msn/gmail.com or our website torentz 3xforum ro

Harry Potter and the Deathly Hallows Part 2 (2011) DVDRip XviD-MAX Torrent Free Download
 
http://thepiratebay.org/user/extremezone/0/7

How To Get Your Maxspeed (uTorrent)

Torrent Client - Preferences - Bandwidth - Number of connections - Set aprox. 500 for each 
Torrent Client - Preferences - BiTorrent - Protocol Encryption - Forced
Bandwidth Allocation - High (Set download/upload limit - Unlimited)
Stop Other Active Torrents - Start downloading and wait for connections.
Enjoy and Seed for at least 1:1 ratio. Don't forget to say thanks/leave reviews.
Before downloading you should check/google search sample "release name""sample".
Greets to all actual/future p2p/scene QUALITY groups and affiliate websites.
Don't trust IMDb robot or bad ratings,always watch some trailers first.
Ignore stupid comments/fake/mislabeled/no-DVDrips/CAM/TS/RAR uploads.
Please spread this release/torrent to your friends/forums/etc.
If you need translation subs visit some subtitles sites.
Report if you see online streaming or other spam links.
Recommended movie player VLC PLAYER.